PathFileType	4	(X/Y/Z)	C:\Users\WrightLab\Desktop\Jo\P4V131.trc
DataRate	CameraRate	NumFrames	NumMarkers	Units	OrigDataRate	OrigDataStartFrame	OrigNumFrames
100.00	100.00	       26	19	mm	100.00	435	       497
Frame#	Time	Headset_Front			Headset_Back			Headset_Left			Headset_Right			Left_Shoulder			Right_Shoulder			Sternum			C7			Left Elbow			Right Elbow			Left Wrist			Right Wrist			Left ASIS			Right ASIS			S2			Left Knee			Right Knee			Left Ankle			Right Ankle			
		X1	Y1	Z1	X2	Y2	Z2	X3	Y3	Z3	X4	Y4	Z4	X5	Y5	Z5	X6	Y6	Z6	X7	Y7	Z7	X8	Y8	Z8	X9	Y9	Z9	X10	Y10	Z10	X11	Y11	Z11	X12	Y12	Z12	X13	Y13	Z13	X14	Y14	Z14	X15	Y15	Z15	X16	Y16	Z16	X17	Y17	Z17	X18	Y18	Z18	X19	Y19	Z19	

435	4.340	-373.78305	1228.23792	2046.86353	-207.38780	1743.93958	2355.89844							18.56649	1577.20569	2254.40967	-23.82005	1769.55664	2254.92261	-160.72473	1521.36121	2268.10229				67.45935	1245.03711	2411.57715				-137.48732	1059.33459	2555.10205	-435.00253	976.07025	2214.94849				-320.84766	1084.61951	2191.78662				7.90482	598.81610	2310.53906	-298.51746	598.00208	2196.17798	37.76772	105.20114	2182.42920	-175.03458	103.75971	2173.30737	
436	4.350	-375.56653	1227.67737	2048.46826	-210.18163	1744.53503	2355.08984							15.88378	1577.50256	2255.96973	-26.31943	1769.99548	2255.84399	-163.90044	1521.69873	2269.25464				64.71001	1244.24817	2411.14502				-140.11713	1056.98120	2554.89307	-436.76175	976.36237	2217.52441										6.63245	598.03479	2312.39136	-299.86850	598.15222	2196.35742	37.84526	105.27600	2182.42261	-174.92381	102.75289	2174.66797	
437	4.360	-378.55002	1226.88489	2051.19434	-212.70772	1745.13977	2355.65698							13.04628	1577.24316	2257.41968	-28.85033	1769.74475	2255.63916	-166.40343	1521.62244	2270.44434				62.05168	1242.66284	2410.44312				-142.07220	1053.61108	2552.23511	-438.39026	976.24011	2220.41919										4.47887	597.12366	2315.12207	-300.75403	598.00043	2196.80640	37.85802	105.26774	2182.40967	-175.11438	103.67106	2173.41846	
438	4.370	-380.13571	1226.56836	2051.72583	-215.71642	1745.35486	2354.77051							10.51836	1577.37769	2259.05444	-31.20350	1769.91077	2255.37183	-169.25479	1521.99622	2271.24463				59.31034	1241.63379	2410.05981				-143.38127	1049.97595	2550.22754	-440.09396	976.31976	2223.15454										2.60766	596.35657	2317.59009	-301.33032	597.78882	2197.30396	37.86362	105.26657	2182.40552	-174.87970	102.81990	2174.60571	
439	4.380	-382.81345	1225.97681	2053.47046	-218.44722	1746.09534	2355.27930							7.75805	1577.78430	2260.95972	-33.62265	1770.09814	2255.48730	-171.86375	1522.16089	2272.43311				57.12057	1240.41821	2409.19580				-144.57066	1045.84460	2548.30615	-441.82956	976.10571	2225.66406										-0.02181	599.45050	2322.47388	-301.97360	597.39459	2198.19775	37.95564	105.29890	2182.36548	-174.87016	102.78822	2174.59399	
440	4.390	-384.68057	1225.06531	2055.37549	-221.53441	1746.44470	2354.92139							4.91359	1577.64233	2262.21484	-36.34967	1769.82813	2255.34888							54.61508	1239.34204	2409.54932				-145.69057	1042.43542	2546.52832	-443.35977	976.26086	2227.45654										-2.13422	598.28802	2325.48193	-302.58841	597.08362	2199.16968	38.37800	105.24803	2183.21313	-174.87149	102.88419	2174.59253	
441	4.400	-386.67633	1224.17432	2055.99365	-224.20804	1746.61230	2354.32593							2.11989	1577.57300	2263.63525	-38.97431	1769.50415	2256.32202							51.81076	1238.04529	2408.88257				-145.89394	1038.00342	2544.05615	-445.61932	976.20990	2230.39575										-3.81750	597.54053	2327.68335	-303.03265	596.73840	2199.66064	38.40298	105.32397	2183.24023	-174.86639	102.86066	2174.58643	
442	4.410	-388.94720	1223.46301	2056.58154	-227.00053	1747.32092	2354.41602							-0.46215	1577.90112	2265.79663	-41.90497	1769.56750	2256.15088							49.83790	1236.83264	2409.03442				-145.94783	1033.65344	2542.64819	-447.35965	975.67267	2232.12329										-6.59062	597.04730	2330.67651	-303.59723	596.36169	2200.05518	38.39333	105.35574	2183.26440	-175.07050	103.75456	2173.35620	
443	4.420	-390.07910	1222.12732	2057.37695	-230.06111	1747.60645	2353.25439							-3.25838	1577.57190	2267.44458	-44.36798	1769.76672	2256.47021							47.43649	1235.91797	2409.23584				-145.88887	1028.81958	2540.21973	-448.90253	975.24036	2233.40186										-8.34604	598.60107	2336.46753	-304.85126	596.04816	2200.55493	38.40285	105.43248	2183.30176	-174.90926	102.66987	2174.65112	
444	4.430	-392.45859	1221.11951	2058.84937										-6.50149	1577.25598	2268.94995	-47.00786	1769.21704	2255.98291							44.93954	1234.79590	2409.55811				-145.78519	1024.23096	2538.45020	-451.07953	975.53070	2235.83228										-11.30680	597.91418	2339.99170	-306.57999	595.85516	2201.15332	38.42995	105.54353	2183.34741	-174.98853	102.59123	2174.76123	
445	4.440	-394.33871	1220.51013	2059.02563										-9.21710	1576.85632	2270.54517	-49.68310	1769.01746	2256.69458							43.32563	1233.77490	2409.82593				-144.50378	1019.09198	2536.35938	-452.94064	975.29755	2237.67065										-12.60732	596.98206	2342.40625	-308.35330	595.54651	2201.75269	38.40401	105.70998	2183.45801	-175.16615	103.51897	2173.49390	
446	4.450	-395.16641	1219.06921	2058.91748										-12.54637	1577.12634	2273.22778	-52.73954	1768.69482	2256.82397							41.25478	1233.17639	2410.44409				-143.16452	1013.94696	2534.39063	-454.80197	974.65045	2238.53101										-14.59345	597.83075	2347.81689	-309.73355	594.68866	2201.95459	38.85817	106.65950	2185.03052				
447	4.460	-396.79095	1217.71484	2059.40845										-15.47147	1576.51599	2274.35059	-54.98569	1768.23792	2256.82544							38.82695	1231.90503	2410.97119				-141.60426	1008.81769	2532.46094	-457.15628	974.06506	2239.21558										-17.84203	598.40692	2351.89404	-311.94177	595.01880	2204.80396	38.68526	107.86617	2185.54224				
448	4.470	-398.40359	1216.81213	2059.45166										-18.50905	1576.17444	2276.57422	-58.28288	1768.27185	2257.55737							37.61712	1230.77637	2411.35767				-139.75911	1003.94037	2530.68994													-19.95684	597.28284	2355.01294	-313.53580	594.44617	2204.18604	38.28040	109.31748	2185.88477				
449	4.480	-399.59726	1215.83972	2059.26440										-21.44063	1576.30371	2278.19751	-60.86723	1768.27246	2257.85840							35.25220	1231.16028	2413.10303				-137.91631	999.15906	2529.35327													-22.43103	597.86273	2360.88965	-314.94992	594.11194	2204.52954	38.40343	110.28290	2185.78125				
450	4.490	-400.33182	1215.12488	2059.95361										-24.66111	1575.43982	2279.77417	-63.72343	1767.83093	2258.41650							34.01036	1230.13501	2413.10645				-135.32925	993.74060	2527.17383													-26.81699	597.94098	2366.32373	-317.12582	593.37793	2205.58594	38.54389	112.08681	2187.55029				
451	4.500	-401.99387	1214.09546	2060.16138										-27.59128	1575.81104	2281.36060	-66.36969	1767.64294	2258.75635							31.91624	1229.24500	2413.75757				-131.92451	988.98083	2525.40088													-29.62908	596.65363	2370.03442	-318.82043	593.09900	2206.89478	38.45981	113.19187	2187.75220				
452	4.510	-403.84732	1213.59119	2060.55444										-30.87572	1576.11499	2283.75342	-69.20821	1767.96497	2259.22363							31.04592	1228.56470	2413.57104				-128.86993	985.27155	2524.77246													-34.52763	598.66248	2378.20605	-319.66672	592.89728	2207.50415	37.98943	116.14830	2188.35864				
453	4.520	-404.86978	1213.49072	2060.75073										-34.30342	1575.70032	2285.37891	-72.27317	1768.12207	2259.97583							29.40368	1228.75488	2414.89014				-125.38247	979.92981	2522.85132													-37.85902	596.97937	2382.73218	-320.94733	592.50970	2207.75513	37.69282	118.05568	2189.63013				
454	4.530	-405.59625	1212.93579	2060.55322										-37.02352	1575.89539	2286.68408	-75.09825	1768.16345	2260.39746							28.30968	1228.58496	2415.49951				-121.63641	976.66394	2522.90430													-42.84332	598.85907	2391.12280	-322.62756	592.05328	2207.89893	37.12336	121.31234	2190.69214				
455	4.540	-407.31519	1212.21716	2060.48462										-40.30235	1575.78296	2288.69067	-77.82467	1767.44067	2261.04688							27.06558	1228.79126	2416.73047				-117.67755	972.37506	2520.64404													-47.68445	596.99176	2397.19385	-324.13889	591.91327	2208.11206	36.72825	124.40148	2191.88330				
456	4.550	-409.09940	1211.74207	2060.85083										-43.44605	1575.43176	2289.81250	-80.84431	1767.47864	2261.93018							26.34594	1228.55530	2417.07544				-113.81427	969.70514	2521.34888													-53.14848	598.39081	2406.51050	-325.25320	591.61530	2207.66626	35.95507	127.87958	2193.91309				
457	4.560	-410.29535	1211.32288	2061.36841										-46.03402	1576.13806	2291.24634	-83.67657	1767.79260	2262.43481							25.93277	1228.25330	2416.73877				-109.76649	966.04199	2520.82275													-58.86100	596.89319	2412.89575	-326.45349	591.14362	2208.89819	35.22355	132.26125	2195.78857				
458	4.570	-411.22827	1210.74158	2060.52563										-49.38702	1576.35303	2292.99365	-86.98638	1767.74792	2263.64648							25.40442	1227.99292	2417.02075				-106.12666	963.27655	2521.22461													-65.83119	595.68579	2419.01978	-328.21002	591.14246	2208.76587	33.81707	136.67192	2197.99341				
459	4.580	-413.21518	1210.31958	2059.37915										-52.40665	1575.59167	2294.58008	-90.10561	1767.48828	2264.95190							24.37258	1228.23438	2418.13208				-101.82727	961.26257	2521.78149													-71.97607	594.90173	2425.63159	-329.44986	590.61926	2209.56348	32.85819	141.38063	2200.05371				
460	4.590	-414.87531	1209.81787	2059.06250										-55.10500	1575.78882	2295.94800	-92.72044	1767.29065	2265.35376							24.04170	1228.16809	2418.74390				-98.39546	959.05200	2522.76611													-78.86082	595.99908	2433.57056	-329.99908	590.30530	2209.74414	31.44762	145.68654	2201.70239				
